<svg width="20" height="21" viewBox="0 0 20 21" fill="none" xmlns="http://www.w3.org/2000/svg">
<path d="M16.875 5.57812H14.2188L13.5859 3.80469C13.5422 3.68334 13.4621 3.57844 13.3565 3.50433C13.251 3.43022 13.1251 3.39051 12.9961 3.39063H7.00391C6.74023 3.39063 6.50391 3.55664 6.41602 3.80469L5.78125 5.57812H3.125C2.26172 5.57812 1.5625 6.27734 1.5625 7.14062V16.0469C1.5625 16.9102 2.26172 17.6094 3.125 17.6094H16.875C17.7383 17.6094 18.4375 16.9102 18.4375 16.0469V7.14062C18.4375 6.27734 17.7383 5.57812 16.875 5.57812ZM10 14.4844C8.27344 14.4844 6.875 13.0859 6.875 11.3594C6.875 9.63281 8.27344 8.23437 10 8.23437C11.7266 8.23437 13.125 9.63281 13.125 11.3594C13.125 13.0859 11.7266 14.4844 10 14.4844ZM8.125 11.3594C8.125 11.8567 8.32254 12.3336 8.67417 12.6852C9.02581 13.0368 9.50272 13.2344 10 13.2344C10.4973 13.2344 10.9742 13.0368 11.3258 12.6852C11.6775 12.3336 11.875 11.8567 11.875 11.3594C11.875 10.8621 11.6775 10.3852 11.3258 10.0335C10.9742 9.68192 10.4973 9.48437 10 9.48437C9.50272 9.48437 9.02581 9.68192 8.67417 10.0335C8.32254 10.3852 8.125 10.8621 8.125 11.3594Z" fill="#FF7A2E"/>
</svg>
