<svg width="20" height="21" viewBox="0 0 20 21" fill="none" xmlns="http://www.w3.org/2000/svg">
<path d="M16.7445 2.16664C16.7445 2.0193 16.6859 1.87799 16.5817 1.7738C16.4776 1.66962 16.3363 1.61108 16.1889 1.61108H3.96669C3.81935 1.61108 3.67804 1.66962 3.57385 1.7738C3.46966 1.87799 3.41113 2.0193 3.41113 2.16664V2.7222H16.7445V2.16664Z" fill="#FF7A2E"/>
<path d="M17.8444 4.38881C17.8444 4.24147 17.7858 4.10016 17.6817 3.99597C17.5775 3.89178 17.4362 3.83325 17.2888 3.83325H2.84437C2.69703 3.83325 2.55572 3.89178 2.45154 3.99597C2.34735 4.10016 2.28882 4.24147 2.28882 4.38881V4.94436H17.8444V4.38881Z" fill="#FF7A2E"/>
<path d="M17.8444 6.05566H2.15553C1.87852 6.05566 1.61287 6.1657 1.41699 6.36157C1.22112 6.55745 1.11108 6.8231 1.11108 7.10011V17.2334C1.11108 17.5104 1.22112 17.7761 1.41699 17.972C1.61287 18.1678 1.87852 18.2779 2.15553 18.2779H17.8444C18.1214 18.2779 18.3871 18.1678 18.583 17.972C18.7788 17.7761 18.8889 17.5104 18.8889 17.2334V7.10011C18.8889 6.8231 18.7788 6.55745 18.583 6.36157C18.3871 6.1657 18.1214 6.05566 17.8444 6.05566ZM4.75553 7.97233C5.08516 7.97233 5.4074 8.07008 5.68148 8.25321C5.95556 8.43635 6.16918 8.69665 6.29533 9.00119C6.42147 9.30574 6.45448 9.64085 6.39017 9.96415C6.32586 10.2874 6.16713 10.5844 5.93404 10.8175C5.70095 11.0506 5.40398 11.2093 5.08068 11.2736C4.75738 11.3379 4.42227 11.3049 4.11772 11.1788C3.81318 11.0527 3.55288 10.839 3.36975 10.5649C3.18661 10.2909 3.08886 9.96863 3.08886 9.639C3.08886 9.19697 3.26446 8.77305 3.57702 8.46049C3.88958 8.14793 4.3135 7.97233 4.75553 7.97233ZM16.6666 16.0557H3.33331L7.47775 11.9057C7.55163 11.8324 7.65147 11.7913 7.75553 11.7913C7.85959 11.7913 7.95943 11.8324 8.03331 11.9057L10.0778 13.9501L12.8944 11.0557C12.9683 10.9824 13.0681 10.9413 13.1722 10.9413C13.2763 10.9413 13.3761 10.9824 13.45 11.0557L16.6666 14.2723V16.0557Z" fill="#FF7A2E"/>
</svg>
