<svg width="16" height="16" viewBox="0 0 16 16" fill="none" xmlns="http://www.w3.org/2000/svg">
<rect x="0.5" y="0.5" width="15" height="15" rx="3.5" fill="#FF7A2E" stroke="#FF7A2E"/>
<path d="M13.4864 2.45834C13.3762 2.38685 13.2531 2.33776 13.1239 2.31388C12.9948 2.29 12.8623 2.29179 12.7338 2.31916C12.6054 2.34652 12.4836 2.39892 12.3754 2.47336C12.2673 2.5478 12.1748 2.64283 12.1034 2.753L6.50003 11.39L3.76737 8.86334C3.67095 8.77419 3.55793 8.70491 3.43474 8.65945C3.31155 8.61398 3.18061 8.59323 3.0494 8.59836C2.78442 8.60874 2.5344 8.72396 2.35436 8.91867C2.17433 9.11339 2.07901 9.37164 2.08939 9.63663C2.09977 9.90162 2.21499 10.1516 2.4097 10.3317L5.9977 13.649C5.9977 13.649 6.1007 13.7377 6.14836 13.7687C6.25853 13.8402 6.38171 13.8893 6.51086 13.9133C6.64002 13.9372 6.77263 13.9354 6.9011 13.908C7.02957 13.8807 7.15139 13.8282 7.25959 13.7538C7.36779 13.6793 7.46026 13.5842 7.5317 13.474L13.781 3.84134C13.8525 3.73119 13.9016 3.60804 13.9255 3.47891C13.9494 3.34979 13.9476 3.21722 13.9202 3.08879C13.8928 2.96036 13.8405 2.83858 13.766 2.7304C13.6916 2.62223 13.5965 2.52978 13.4864 2.45834V2.45834Z" fill="white"/>
</svg>
