<svg width="16" height="16" viewBox="0 0 16 16" fill="none" xmlns="http://www.w3.org/2000/svg">
<path d="M12.6667 7.33332H8.66675V3.33332C8.66675 3.15651 8.59651 2.98694 8.47149 2.86192C8.34646 2.73689 8.17689 2.66666 8.00008 2.66666C7.82327 2.66666 7.6537 2.73689 7.52868 2.86192C7.40365 2.98694 7.33341 3.15651 7.33341 3.33332V7.33332H3.33341C3.1566 7.33332 2.98703 7.40356 2.86201 7.52858C2.73699 7.65361 2.66675 7.82318 2.66675 7.99999C2.66675 8.1768 2.73699 8.34637 2.86201 8.47139C2.98703 8.59642 3.1566 8.66666 3.33341 8.66666H7.33341V12.6667C7.33341 12.8435 7.40365 13.013 7.52868 13.1381C7.6537 13.2631 7.82327 13.3333 8.00008 13.3333C8.17689 13.3333 8.34646 13.2631 8.47149 13.1381C8.59651 13.013 8.66675 12.8435 8.66675 12.6667V8.66666H12.6667C12.8436 8.66666 13.0131 8.59642 13.1382 8.47139C13.2632 8.34637 13.3334 8.1768 13.3334 7.99999C13.3334 7.82318 13.2632 7.65361 13.1382 7.52858C13.0131 7.40356 12.8436 7.33332 12.6667 7.33332Z" fill="#FF7A2E"/>
</svg>
