<svg width="24" height="24" viewBox="0 0 24 24" fill="none" xmlns="http://www.w3.org/2000/svg">
<path d="M8.25 6.375L8.25 11.25L15.0469 11.25C15.2458 11.25 15.4366 11.329 15.5772 11.4697C15.7179 11.6103 15.7969 11.8011 15.7969 12C15.7969 12.1989 15.7179 12.3897 15.5772 12.5303C15.4366 12.671 15.2458 12.75 15.0469 12.75L8.25 12.75L8.25 17.625C8.25074 18.321 8.52754 18.9882 9.01967 19.4803C9.51179 19.9725 10.179 20.2493 10.875 20.25L19.875 20.25C20.571 20.2493 21.2382 19.9725 21.7303 19.4803C22.2225 18.9882 22.4993 18.321 22.5 17.625L22.5 6.375C22.4993 5.67904 22.2225 5.01179 21.7303 4.51967C21.2382 4.02755 20.571 3.75075 19.875 3.75L10.875 3.75C10.179 3.75074 9.51179 4.02754 9.01967 4.51967C8.52755 5.01179 8.25074 5.67903 8.25 6.375ZM4.06078 11.25L6.53016 8.78016C6.66487 8.63836 6.73886 8.44955 6.73636 8.25397C6.73386 8.0584 6.65505 7.87155 6.51675 7.73325C6.37845 7.59495 6.1916 7.51614 5.99602 7.51364C5.80045 7.51113 5.61164 7.58513 5.46984 7.71984L1.71984 11.4698C1.5793 11.6105 1.50035 11.8012 1.50035 12C1.50035 12.1988 1.5793 12.3895 1.71984 12.5302L5.46984 16.2802C5.61164 16.4149 5.80045 16.4889 5.99602 16.4864C6.1916 16.4839 6.37845 16.4051 6.51675 16.2668C6.65505 16.1284 6.73386 15.9416 6.73636 15.746C6.73886 15.5505 6.66487 15.3616 6.53016 15.2198L4.06078 12.75L8.25 12.75L8.25 11.25L4.06078 11.25Z" fill="#979797"/>
</svg>
