<svg width="20" height="20" viewBox="0 0 20 20" fill="none" xmlns="http://www.w3.org/2000/svg">
<path d="M5.07511 15.8334H15.0751L13.9918 16.9084C13.8349 17.0653 13.7467 17.2781 13.7467 17.5C13.7467 17.7219 13.8349 17.9348 13.9918 18.0917C14.1487 18.2486 14.3615 18.3368 14.5834 18.3368C14.8054 18.3368 15.0182 18.2486 15.1751 18.0917L17.6751 15.5917C17.7532 15.5142 17.8152 15.4221 17.8575 15.3205C17.8998 15.219 17.9216 15.11 17.9216 15C17.9216 14.89 17.8998 14.7811 17.8575 14.6795C17.8152 14.578 17.7532 14.4858 17.6751 14.4084L15.1751 11.9084C15.0976 11.8303 15.0055 11.7683 14.9039 11.726C14.8024 11.6836 14.6935 11.6619 14.5834 11.6619C14.4734 11.6619 14.3645 11.6836 14.263 11.726C14.1614 11.7683 14.0692 11.8303 13.9918 11.9084C13.9137 11.9858 13.8517 12.078 13.8094 12.1795C13.7671 12.2811 13.7453 12.39 13.7453 12.5C13.7453 12.61 13.7671 12.719 13.8094 12.8205C13.8517 12.9221 13.9137 13.0142 13.9918 13.0917L15.0751 14.1667H5.07511C4.90439 14.17 4.73468 14.1397 4.57568 14.0774C4.41669 14.0151 4.27153 13.9221 4.14848 13.8037C4.02544 13.6853 3.92693 13.5438 3.85857 13.3873C3.79022 13.2308 3.75336 13.0624 3.75011 12.8917V10.8334C3.75011 10.6123 3.66231 10.4004 3.50603 10.2441C3.34975 10.0878 3.13779 10 2.91678 10C2.69576 10 2.4838 10.0878 2.32752 10.2441C2.17124 10.4004 2.08345 10.6123 2.08345 10.8334V12.8917C2.08671 13.2813 2.16669 13.6664 2.31881 14.0251C2.47093 14.3838 2.6922 14.709 2.97001 14.9822C3.24781 15.2553 3.5767 15.4711 3.9379 15.6171C4.29909 15.7632 4.68552 15.8367 5.07511 15.8334ZM4.82511 8.0917C4.98203 8.24862 5.19486 8.33677 5.41678 8.33677C5.6387 8.33677 5.85153 8.24862 6.00845 8.0917C6.16537 7.93478 6.25352 7.72195 6.25352 7.50003C6.25352 7.27811 6.16537 7.06528 6.00845 6.90836L4.92511 5.83336H14.9251C15.0958 5.83005 15.2655 5.8604 15.4245 5.92269C15.5835 5.98497 15.7287 6.07797 15.8517 6.19638C15.9748 6.31478 16.0733 6.45626 16.1417 6.61274C16.21 6.76922 16.2469 6.93764 16.2501 7.10836V9.1667C16.2501 9.38771 16.3379 9.59967 16.4942 9.75595C16.6505 9.91223 16.8624 10 17.0834 10C17.3045 10 17.5164 9.91223 17.6727 9.75595C17.829 9.59967 17.9168 9.38771 17.9168 9.1667V7.10836C17.9135 6.71877 17.8335 6.33364 17.6814 5.97496C17.5293 5.61627 17.308 5.29107 17.0302 5.0179C16.7524 4.74474 16.4235 4.52898 16.0623 4.38293C15.7011 4.23687 15.3147 4.1634 14.9251 4.1667H4.92511L6.00845 3.0917C6.08655 3.01423 6.14855 2.92206 6.19085 2.82051C6.23316 2.71896 6.25494 2.61004 6.25494 2.50003C6.25494 2.39002 6.23316 2.2811 6.19085 2.17955C6.14855 2.078 6.08655 1.98583 6.00845 1.90836C5.93098 1.83026 5.83881 1.76826 5.73726 1.72595C5.63571 1.68365 5.52679 1.66187 5.41678 1.66187C5.30677 1.66187 5.19785 1.68365 5.0963 1.72595C4.99475 1.76826 4.90258 1.83026 4.82511 1.90836L2.32511 4.40836C2.247 4.48583 2.18501 4.578 2.1427 4.67955C2.1004 4.7811 2.07861 4.89002 2.07861 5.00003C2.07861 5.11004 2.1004 5.21896 2.1427 5.32051C2.18501 5.42206 2.247 5.51423 2.32511 5.5917L4.82511 8.0917Z" fill="#FF7A2E"/>
</svg>
