<svg width="12" height="12" viewBox="0 0 12 12" fill="none" xmlns="http://www.w3.org/2000/svg">
<path d="M4.125 0.375C4.125 0.275544 4.16451 0.180161 4.23484 0.109835C4.30516 0.0395088 4.40054 0 4.5 0L7.5 0C7.59946 0 7.69484 0.0395088 7.76517 0.109835C7.83549 0.180161 7.875 0.275544 7.875 0.375C7.875 0.474456 7.83549 0.569839 7.76517 0.640165C7.69484 0.710491 7.59946 0.75 7.5 0.75H4.5C4.40054 0.75 4.30516 0.710491 4.23484 0.640165C4.16451 0.569839 4.125 0.474456 4.125 0.375ZM9.75 2.625V9.75C9.74877 10.048 9.62984 10.3334 9.41913 10.5441C9.20842 10.7548 8.92299 10.8738 8.625 10.875H3.375C3.07701 10.8738 2.79158 10.7548 2.58087 10.5441C2.37016 10.3334 2.25123 10.048 2.25 9.75V2.625C2.25123 2.32701 2.37016 2.04158 2.58087 1.83087C2.79158 1.62016 3.07701 1.50123 3.375 1.5H8.625C8.92299 1.50123 9.20842 1.62016 9.41913 1.83087C9.62984 2.04158 9.74877 2.32701 9.75 2.625ZM7.05938 5.97656C7.02534 5.92582 6.97929 5.88428 6.92531 5.85565C6.87133 5.82702 6.8111 5.8122 6.75 5.8125H5.80313L6.34687 4.45312C6.36897 4.40696 6.38139 4.35676 6.38335 4.30562C6.38532 4.25448 6.37679 4.20347 6.3583 4.15575C6.33982 4.10803 6.31175 4.06459 6.27585 4.02812C6.23994 3.99165 6.19695 3.96292 6.14952 3.94369C6.10209 3.92446 6.05122 3.91515 6.00006 3.91632C5.94889 3.91749 5.8985 3.92912 5.852 3.95049C5.8055 3.97187 5.76387 4.00254 5.72966 4.04061C5.69546 4.07868 5.66941 4.12336 5.65312 4.17188L4.90312 6.04688C4.87999 6.10404 4.8713 6.16603 4.87784 6.22735C4.88438 6.28868 4.90595 6.34744 4.94063 6.39844C4.97466 6.44918 5.02071 6.49072 5.07469 6.51935C5.12867 6.54798 5.1889 6.5628 5.25 6.5625H6.19687L5.65312 7.92188C5.63411 7.96736 5.62437 8.01619 5.62447 8.0655C5.62458 8.1148 5.63453 8.16359 5.65374 8.209C5.67295 8.2544 5.70103 8.29552 5.73635 8.32993C5.77166 8.36434 5.81349 8.39135 5.85938 8.40937C5.904 8.42771 5.95175 8.43726 6 8.4375C6.07471 8.43799 6.14783 8.41586 6.20973 8.37403C6.27164 8.3322 6.31945 8.27262 6.34687 8.20312L7.09687 6.32812C7.12001 6.27096 7.1287 6.20897 7.12216 6.14765C7.11562 6.08632 7.09405 6.02756 7.05938 5.97656Z" fill="#FF7A2E"/>
</svg>
